<svg xmlns="http://www.w3.org/2000/svg" viewBox="0 0 500 500">
<defs>
<filter id="shadow"><feGaussianBlur in="SourceAlpha" stdDeviation="10"/><feOffset result="offsetBlur" dx="0" dy="10"/><feFlood flood-color="rgba(0, 0, 0, 0.5)"/><feComposite in2="offsetBlur" operator="in"/><feMerge><feMergeNode/><feMergeNode in="SourceGraphic"/></feMerge></filter>
<filter id="smallShadow"><feGaussianBlur in="SourceAlpha" stdDeviation="5"/><feOffset result="offsetBlur" dx="0" dy="5"/><feFlood flood-color="rgba(0, 0, 0, 0.5)"/><feComposite in2="offsetBlur" operator="in"/><feMerge><feMergeNode/><feMergeNode in="SourceGraphic"/></feMerge></filter>
</defs>
<style>
.blueFill{fill:#336699;filter:url(#shadow);} .redFill{fill:#990000;filter:url(#smallShadow);}
</style>
<path class="az blueFill" d="M99.9 392.6L301 466.1c.2.1.5.1.7.1h126.6c1.2 0 2.1-1 2.1-2.1V29.9c0-1.2-1-2.1-2.1-2.1H113.8c-1.2 0-2.1 1-2.1 2.2l.4 62.1c0 .3-.1.6-.2.9l-5.4 11.9c-.3.7-1 1.2-1.7 1.2l-4.6.5c-.7.1-1.4-.2-1.8-.7l-7-7.6c-.4-.5-1.1-.7-1.7-.7l-17.7 1c-1 .1-1.8.7-2 1.7l-2.2 9.6c-.1.5 0 1 .2 1.4l2.9 5.8c.1.3.2.5.2.8l1.1 16.7v.2l-.5 14.2c0 .2 0 .4.1.6l5.8 25c.2.9-.2 1.8-.9 2.3l-5.3 3.5c-.8.5-1.2 1.6-.8 2.5l4 11.7c.1.2.1.3.2.5l11.5 17.5c.1.1.1.2.1.2l7.7 16c.1.2.2.4.3.5l10.1 11.2c.8.9.7 2.2-.1 3l-7.6 7.1c-.2.2-.4.3-.6.4l-7.4 3.3c-.6.3-1.1.9-1.2 1.5l-1.2 6.3c-.1.4-.2.7-.5 1l-4.2 4.9c-.4.4-.6 1-.5 1.6l1.3 12.2v.4l-1.2 14.1c0 .3-.1.7-.3 1l-6.5 10c-.3.5-.9.9-1.5 1l-2.1.3c-1.5.2-2.3 1.8-1.6 3.1l.3.6c.3.6.3 1.3 0 1.9l-1 2.2c-.5 1.1 0 2.5 1.2 2.9 1 .4 1.6 1.4 1.4 2.4l-1.9 9.6c-.1.5 0 .9.2 1.4l2 4.2c.4.7 1.1 1.2 1.9 1.2l7.2.2c1 0 1.9.7 2 1.7l1.9 9.9c.1.5 0 1-.2 1.4l-3.5 6.7c-.3.5-.7.9-1.3 1.1l-4.4 1.3-5.6 1.3c-.5.1-.9.4-1.2.8l-4.8 6.5c-.2.3-.4.7-.4 1.1l-.4 6.6c-.1.9.5 1.8 1.4 2.1l35.8 13.8z"/>
<path class="tucson redFill" d="M415.9 449.4h-123c-.6 0-1.2-.1-1.8-.3L213.8 420c-2.2-.8-3.6-3.1-3.3-5.4l8.5-74.3c.3-2.6 2.5-4.6 5.2-4.6H416c2.9 0 5.2 2.3 5.2 5.2v103.4c-.1 2.8-2.4 5.1-5.3 5.1z"/>
<path class="phoenix redFill" d="M226.2 211.7h78.9c.4 0 .8.1 1.2.3l49.5 28c1.4.8 2.3 3 2.1 5.2v72c-.2 2.5-1.5 4.1-3.2 4.1H226.2c-1.8 0-3.3-2.2-3.3-5v-99.6c-.1-2.8 1.4-5 3.3-5z"/>
</svg>
