<svg xmlns="http://www.w3.org/2000/svg" viewBox="0 0 150 150"><style>.fillColor{fill:#003366;} .text{font-size:40px;font-family:&apos;Arial-BoldMT&apos;}</style><text transform="matrix(1.161 0 0 1 23.948 127.678)" class="fillColor  text">BBB</text><path class="fillColor" d="M84.2 95.6H64l-2.6-7.9H49.9l.7-5.3 46.8.1 1.2 5.2H86.2z"/><path class="fillColor" d="M86.1 64.2l-1.5-1.3c1.9-2.5 2.7-8.4-2.2-12.6-4.1-3.4-21.4-10.7-20.2-22 .3-5.8 3.3-9.2 5.3-12.3 1.5-2.2 4.7-5.9 6.8-9l1.2.7c0 .5-2 3.8.7 6.3 2.1 2 5.3 4.8 14.6 10.6 4.5 3.5 6.7 4.1 8.8 11.5 1.6 5.7-.2 9.8-6.4 17.7-3.2 4.1-5.8 9-7.1 10.4z"/><path class="fillColor" d="M74.3 79.7l-1.6-1c1.3-1.6.8-3.7-2.5-6.4-2.7-2.3-14.6-7-13.8-14.4.2-3.8 2.6-6.1 4-8.1 1-1.5 2.7-3.9 4.1-5.9l1.2.5c0 .3-.6 2.8 1.2 4.4 1.4 1.3 3.2 2.6 9.2 6.5 3 2.3 4.2 2.9 5.6 7.8 1.1 3.8 0 6.8-4 12.1-2.3 2.5-2.5 3.6-3.4 4.5z"/></svg>
