<?xml version="1.0" encoding="utf-8"?>
<!-- Generator: Adobe Illustrator 19.1.0, SVG Export Plug-In . SVG Version: 6.00 Build 0)  -->
<svg version="1.1" id="bbb" xmlns="http://www.w3.org/2000/svg" xmlns:xlink="http://www.w3.org/1999/xlink" x="0px" y="0px"
	 viewBox="0 0 150 150" style="enable-background:new 0 0 150 150;" xml:space="preserve">
<style type="text/css">
	.st0{fill:#003366;}
	.st1{font-family:'Arial-BoldMT';}
	.st2{font-size:40.5936px;}
</style>
<text id="text" transform="matrix(1.161 0 0 1 23.9475 127.6776)" class="st0 st1 st2">BBB</text>
<polygon id="table" class="st0" points="84.2,95.6 64,95.6 61.4,87.7 49.9,87.7 50.6,82.4 97.4,82.5 98.6,87.7 86.2,87.7 "/>
<path id="p2" class="st0" d="M86.1,64.2l-1.5-1.3c1.9-2.5,2.7-8.4-2.2-12.6c-4.1-3.4-21.4-10.7-20.2-22c0.3-5.8,3.3-9.2,5.3-12.3
	c1.5-2.2,4.7-5.9,6.8-9l1.2,0.7c0,0.5-2,3.8,0.7,6.3c2.1,2,5.3,4.8,14.6,10.6c4.5,3.5,6.7,4.1,8.8,11.5c1.6,5.7-0.2,9.8-6.4,17.7
	C90,57.9,87.4,62.8,86.1,64.2z"/>
<path id="p1" class="st0" d="M74.3,79.7l-1.6-1c1.3-1.6,0.8-3.7-2.5-6.4c-2.7-2.3-14.6-7-13.8-14.4c0.2-3.8,2.6-6.1,4-8.1
	c1-1.5,2.7-3.9,4.1-5.9l1.2,0.5c0,0.3-0.6,2.8,1.2,4.4c1.4,1.3,3.2,2.6,9.2,6.5c3,2.3,4.2,2.9,5.6,7.8c1.1,3.8,0,6.8-4,12.1
	C75.4,77.7,75.2,78.8,74.3,79.7z"/>
</svg>
