<svg xmlns="http://www.w3.org/2000/svg" viewBox="0 0 100 100"><style> .fill{fill:#990000;}</style><path class="phone fill" d="M59.9 45.6C54.7 34.8 44.2 29 47.3 27.5c3.1-1.5 12 5.1 17.2 15.9s3.9 22.3.8 23.8c-3.2 1.4-.2-10.8-5.4-21.6zM69 41.7c-5.2-10.8-15.7-16.6-12.6-18.1 3.1-1.5 12 5.1 17.2 15.9s3.9 22.3.8 23.8-.2-10.8-5.4-21.6z"/><path class="phone fill" d="M39.2 74.7c2.7 4.5 6.5 7.5 11.6 9.1s12 2.2 18.3-.8c2.4-1.2 1.6-4.7 0-8-1.3-2.7-2.4-4.2-3.3-4.5-1.5-.5-3.4-.1-5.9 1.1l-3.7 1.8c-2.2 1.1-4.4-.3-6.5-4.1L34.9 38.7c-1.7-4-1.4-6.5.8-7.6l3.7-1.8c2.4-1.2 3.9-2.5 4.5-4 .3-.9-.2-2.7-1.5-5.4-1.6-3.3-4.3-6.3-6.8-5.2-6.3 3-9.6 9-11.5 14-1.9 5-1.9 9.9 0 14.7l15.1 31.3z"/></svg>
