<?xml version="1.0" encoding="utf-8"?>
<!-- Generator: Adobe Illustrator 19.1.0, SVG Export Plug-In . SVG Version: 6.00 Build 0)  -->
<svg version="1.1" id="phone-signal" xmlns="http://www.w3.org/2000/svg" xmlns:xlink="http://www.w3.org/1999/xlink" x="0px"
	 y="0px" viewBox="0 0 100 100" style="enable-background:new 0 0 100 100;" xml:space="preserve">
<style type="text/css">
	.st0{fill:#990000;}
</style>
<g id="signal">
	<g>
		<path id="p2_9_" class="st0" d="M59.9,45.6C54.7,34.8,44.2,29,47.3,27.5c3.1-1.5,12,5.1,17.2,15.9s3.9,22.3,0.8,23.8
			C62.1,68.6,65.1,56.4,59.9,45.6z"/>
		<path id="p1_9_" class="st0" d="M69,41.7c-5.2-10.8-15.7-16.6-12.6-18.1c3.1-1.5,12,5.1,17.2,15.9s3.9,22.3,0.8,23.8
			S74.2,52.5,69,41.7z"/>
	</g>
</g>
<path id="phone_1_" class="st0" d="M39.2,74.7c2.7,4.5,6.5,7.5,11.6,9.1s12,2.2,18.3-0.8c2.4-1.2,1.6-4.7,0-8
	c-1.3-2.7-2.4-4.2-3.3-4.5c-1.5-0.5-3.4-0.1-5.9,1.1l-3.7,1.8c-2.2,1.1-4.4-0.3-6.5-4.1L34.9,38.7c-1.7-4-1.4-6.5,0.8-7.6l3.7-1.8
	c2.4-1.2,3.9-2.5,4.5-4c0.3-0.9-0.2-2.7-1.5-5.4c-1.6-3.3-4.3-6.3-6.8-5.2c-6.3,3-9.6,9-11.5,14c-1.9,5-1.9,9.9,0,14.7L39.2,74.7z"
	/>
</svg>
