<?xml version="1.0" encoding="utf-8"?>
<!-- Generator: Adobe Illustrator 19.1.0, SVG Export Plug-In . SVG Version: 6.00 Build 0)  -->
<svg version="1.1" id="logo" xmlns="http://www.w3.org/2000/svg" xmlns:xlink="http://www.w3.org/1999/xlink" x="0px" y="0px"
	 viewBox="-464 226 350 350" style="enable-background:new -464 226 350 350;" xml:space="preserve">
<style type="text/css">
	.st0{fill:#336699;stroke:#000000;stroke-width:3;stroke-miterlimit:10;}
	.st1{fill:#336699;}
</style>
<path id="drop_1_" class="st0" d="M-361.5,553.1c-4.1,2-1.4,8.3,1.7,9.8c3.2,1.5,10.8,0.5,10.3-3.8c-1.8-16.5,4.4-16,1.5-16.2
	C-353,542.4-352.6,548.5-361.5,553.1z"/>
<path id="black" d="M-175.8,250.5h-222.5c0,0-0.1,51.6,0,112.1v110.3h17l20.5-15.3c24.8-19.4,49.3-38.8,54-42.9
	c4.1-3.6,7.5-6.4,25.5-21c7-5.7,13.9-11.4,15.3-12.5c1.4-1.2,6-5,10.2-8.4c9.4-7.4,22.8-19.2,31.7-27.4
	c15.1-14.2,17.2-15.9,19.3-15.9c1.1,0,2,0.5,2,1.2c0,0.6-5.6,6.9-12.5,14s-16.2,16.7-20.6,21.5c-22.1,23.7-56.4,56.8-78.5,76
	c-9.9,8.6-37.4,30.6-43.2,34.5c-9.6,6.5-17.9,12.3-17.8,14.2c0.2,4.2,2.1,17.8,9.2,27.7c9.5,13.4,23,18.9,33.3,18.9
	c17,0,28.3-5,47.3-21c16.4-13.8,42.5-40.8,57.3-59.3c6.5-8.2,10-12.9,10.2-13.3l-10,28.8h52.5V250.5H-175.8z M-291.1,508.1
	c0.3-1.5,1.1-6.2,1.9-10.5c0.7-4.2,1.7-8.4,2.2-9.2c3.2-5.5,7.1-6.6,8.3-2.4c0.9,3.8-0.4,9.3-3.8,16.3c-3.2,6.2-5.3,8.7-7.8,8.7
	C-291.3,511-291.6,510.2-291.1,508.1z"/>
<path id="bottom" class="st1" d="M-175.8,430.4h-58.4l-7.9,7.2c-10.9,9.9-28.6,24.5-46.4,36.6c-19.3,12.8-18.6,11.9-18.6,18.1
	c0,11.8-4.3,26.9-9,31.5c-4.8,4.6-15.2,8.3-24,8.3c-4.6,0.1-7.8-0.6-11.7-3c-4.4-2.8-15.3-14.8-15.3-18.2c0-2.2,18-12.9,31.9-24.5
	c7-5.8,12.9-10.8,13.2-11.1c0.3-0.3,5.3-5,11.2-10.3c10.6-9.6,31-28.3,45.9-42.2c12.7-11.9,34.1-33.7,44-45.3
	c11.7-13.4,45.2-62.3,45.2-62.3v34.5c0,0-7.8,15.3-10.5,20.6c-5.3,10.3-16.7,26.6-25.6,36.6c-3.3,3.8-4.1,6.6-1.8,7.3
	c0.6,0.3,8.1,0.7,16.3,0.7c7.8,0,21,0.2,21.6,0.2L-175.8,430.4z"/>
<path id="middle" class="st1" d="M-175.8,280.6l-10.4-0.5c-5.7,0-11.7,0.6-21.7,5.4c-3.7,1.8-18.1,10.3-19.9,11.6
	c-0.8,0.7-7.6,5.7-16.3,12.2c-0.5,0.4-2.9,2.2-5.1,4.1c-2.2,1.9-9.6,7.8-16.3,13c-6.7,5.3-17.7,14.3-24.5,19.9
	c-22.7,19-32.1,26.2-46,35.9c-4.6,3.2-16.4,10.4-22.6,13.8c-9.1,4.9-13.5,6-24.9,6.6l-14.9,0.6l0-40.5c0,0,7.3,4.3,15.1,3.5
	c24-2.3,35.6-9.7,81.5-44.2c12.6-9.5,30.1-22,38.7-27.8c8.7-5.7,16.3-10.8,16.8-11.3c5.3-4.2,33.6-19.6,45.9-24.9
	c1.6-0.6,9.7-4.3,13.5-4.9c2.4-0.5,10.2-0.3,11,0L-175.8,280.6L-175.8,280.6z"/>
<path id="top-middle" class="st1" d="M-289.7,257c-6.6,2.9-25.1,12.1-27.2,13.5c-0.8,0.5-7,4.2-13.8,8.2
	c-15.5,9.2-20.6,12.5-35.7,23.8c-13.1,9.7-18.5,14.7-24,22.3c-3.9,5.4-8,13.7-8,13.7l0-34.3l8.3-5.8c2.3-1.6,4.5-3.3,4.8-3.6
	c1.4-1.6,39.6-23.9,49.4-28.8c25.2-12.5,23.6-15.1,35.9-15.5c6.2-0.1,30.3,0,30.3,0C-268.8,251-280.7,253-289.7,257z"/>
<path id="top" class="st1" d="M-245.5,264.2c-1.5-2.3,1.5-13.1,3.9-13.7l9.1,0c1.3,0-9.1,12.3-11.8,14
	C-244.7,264.8-245.2,264.6-245.5,264.2z"/>
</svg>
