<svg xmlns="http://www.w3.org/2000/svg" viewBox="0 0 300 300">
<filter id="shadow"><feGaussianBlur in="SourceAlpha" stdDeviation="10"/><feOffset result="offsetBlur" dx="3" dy="6"/><feFlood flood-color="rgba(0, 0, 0, 0.3)"/><feComposite in2="offsetBlur" operator="in"/><feMerge><feMergeNode/><feMergeNode in="SourceGraphic"/></feMerge></filter>
<style>.blueFill{fill:#336699;} #black{fill:#000000;filter:url(#shadow);} #drop{fill:#336699;stroke:#000000;stroke-width:3;stroke-miterlimit:10;}</style>
<path id="black" d="M46,3.1v208h15.6l19.2-13.8c23.2-18.2,46.2-36.3,50.6-40.2c3.8-3.4,7-6,23.9-19.7c6.6-5.3,13-10.7,14.3-11.7c1.3-1.1,5.6-4.7,9.6-7.9c8.8-6.9,21.4-18,29.7-25.7c14-13.1,16-14.7,17.9-14.7c1,0,1.9,0.5,1.9,1.1S223.5,85,217,91.6s-15.2,15.6-19.3,20.1C177,134,144.9,165,124.2,182.9c-9.3,8.1-35,28.7-40.5,32.3c-9,6.1-16.8,11.5-16.7,13.3c0.2,3.9,2,16.7,8.6,25.9c8.9,12.5,21.5,17.7,31.2,17.7c15.9,0,26.5-4.7,44.3-19.7c15.4-12.9,39.8-38.2,53.7-55.5c6.1-7.7,9.4-12.1,9.6-12.5L205,211h49V3H46V3.1z M146,244.7c0.3-1.4,1-5.8,1.8-9.8c0.7-3.9,1.6-7.9,2.1-8.6c3-5.2,6.6-6.2,7.8-2.2c0.8,3.6-0.4,8.7-3.6,15.3c-3,5.8-5,8.1-7.3,8.1C145.8,247.4,145.6,246.6,146,244.7L146,244.7z"/>
<path id="bottom" class="blueFill" d="M254,172.1l-54.8-0.4l-7.4,6.7c-10.2,9.3-26.8,22.9-43.5,34.3c-18.1,12-17.4,11.1-17.4,17c0,11.1-4,25.2-8.4,29.5c-4.5,4.3-14.2,7.8-22.5,7.8c-4.3,0.1-7.3-0.6-11-2.8c-4.1-2.6-14.3-13.9-14.3-17c0-2.1,16.9-12.1,29.9-22.9c6.6-5.4,12.1-10.1,12.4-10.4s5-4.7,10.5-9.6c9.9-9,29-26.5,43-39.5c11.9-11.1,31.9-31.6,41.2-42.4c11-12.5,42.4-59.1,42.4-59.1v33c0,0-7.3,14.4-9.9,19.4c-5,9.6-15.6,24.9-24,34.3c-3.1,3.6-3.8,6.2-1.7,6.8c0.6,0.3,7.6,0.7,15.3,0.7c7.3,0,19.7-0.1,20.3-0.1L254,172V172.1z"/>
<path id="middle" class="blueFill" d="M254,31.6l-9.7-0.5c-5.3,0-11,0.6-20.3,5.1c-3.5,1.7-17,9.6-18.6,10.9c-0.7,0.7-7.1,5.3-15.3,11.4c-0.5,0.4-2.7,2.1-4.8,3.8c-2.1,1.8-9,7.3-15.3,12.2c-6.3,5-16.6,13.4-22.9,18.6c-21.3,17.8-30.1,24.5-43.1,33.6c-4.3,3-15.4,9.7-21.2,12.9c-8.5,4.6-12.6,5.6-23.3,6.2L46,146.4v-37.9c0,0,6.4,4,13.7,3.3c22.5-2.2,33.3-9.1,76.3-41.4c11.8-8.9,28.2-20.6,36.2-26c8.1-5.3,15.3-10.1,15.7-10.6c5-3.9,31.5-18.4,43-23.3c1.5-0.6,9.1-4,12.6-4.6c2.2-0.5,9.7-0.6,10.4-0.3L254,31.6L254,31.6z"/>
<path id="top-middle" class="blueFill" d="M147.3,9.5c-6.2,2.7-23.5,11.3-25.5,12.6c-0.7,0.5-6.6,3.9-12.9,7.7c-14.5,8.6-19.3,11.7-33.4,22.3C63.2,61.2,58.2,65.9,53,73c-3.7,5.1-7,12.8-7,12.8V53.7l7.3-5.4c2.2-1.5,4.2-3.1,4.5-3.4c1.3-1.5,37.1-22.4,46.3-27C127.7,6.2,126.5,3.5,138,3.1c5.8-0.1,28,0,28,0C166.8,3.6,155.8,5.8,147.3,9.5L147.3,9.5z"/>
<path id="top" class="blueFill" d="M188.7,16.2c-1.4-2.2,1-12.5,3.3-13.1h8.9c1.2,0-8.5,11.8-11.1,13.4C189.5,16.8,189,16.6,188.7,16.2z"/>
<path id="drop" d="M81.3,287.1c-3.8,1.9-1.3,7.8,1.6,9.2c3,1.4,10.1,0.5,9.6-3.6c-1.7-15.5,2.9-15.3,0.2-15.5C88.1,276.8,89.7,282.8,81.3,287.1z"/>
</svg>
